<svg xmlns="http://www.w3.org/2000/svg" width="287" height="300" viewBox="0 0 1149 1204" version="1"><g fill="#110e0e"><path d="M547.49 1.75C558.61.71 569.78.59 580.95.77c9.36-.59 18.68.49 28 1.11 67.57 5.33 133.57 29.08 189.04 68.03 55.78 38.85 101.02 92.72 129.46 154.47 32.75 70.32 43.1 150.73 29.84 227.12-8.77 51.75-28.52 101.56-57.32 145.43-27.06 41.26-62.08 77.28-102.62 105.42-49.59 34.61-107.5 57.24-167.44 65.28-76.8 10.71-156.79-2.45-225.96-37.54-66.05-33.16-122.12-85.83-159.39-149.65-37.62-63.73-55.85-138.58-52.32-212.47 1.78-36.98 8.68-73.75 20.95-108.7 24.3-70.31 69.72-133.06 128.66-178.41C400.7 35.16 473.16 7.23 547.49 1.75m-18.47 5.19c-3.59 1.68-7.7 1.26-11.42 2.51-5.47 1.87-11.21 2.75-16.72 4.48-5.08.98-9.36 4.28-14.59 4.71.37.17 1.12.5 1.49.67-5.83 0-9.95 4.56-15.5 5.39.41.15 1.24.45 1.65.59-1.9.43-3.79.91-5.68 1.37.47.23.95.45 1.44.67-5.12 1.17-9.2 4.65-13.79 6.98-7.06 4.53-13.83 9.49-20.35 14.76-.06.56-.17 1.69-.23 2.25l-2.36.12c-4.17 4.82-9.26 8.73-13.35 13.62l-.32 1.92c-3.99 2.02-6 6.37-8.34 9.97-5.12 5.67-8.41 12.69-11.96 19.39-2.91 5.32-4.54 11.17-6.87 16.74-2.45 6.1-4.23 12.49-4.93 19.04-.25-1.3-.49-2.6-.73-3.89.13 2.94.09 5.93-.82 8.77-1.54 4.73-1.22 9.77-2 14.63 5.38 1.59 11.04.09 16.49 1.17-5.42-.38-10.85-.06-16.27-.46l.01-.18c-21.14-.34-42.42-.01-63.32 3.53-23.13 3.97-47.03 11.02-64.68 27.24-12.7 11.37-20.01 28.12-20.37 45.1-.76 24.65 8.63 48.2 19.94 69.64 12.29 22.52 27.4 43.39 43.72 63.15 25.31 30.4 53.19 58.71 83.44 84.22.15 52.32-.01 104.63.08 156.94 0 2.08.28 4.14.62 6.2.2 10.61.48 21.42 3.57 31.65 1.65 7.42 3.83 14.69 5.83 22.01.2-.55.4-1.09.62-1.61.84 5.18 2.7 10.26 5.74 14.58.55 1.44 1.18 2.86 2 4.19 1.78 5.12 5.11 9.41 7.89 14 10.82 15.56 24.65 28.84 39.84 40.1 4.24 2.23 8.26 4.88 12.06 7.81 7.47 3.61 14.93 7.27 22.68 10.28 3.15 1.81 6.56 3.08 10.2 3.46-.49.23-.97.47-1.44.73 7.47.93 14.25 4.49 21.6 5.97 10.85 2.82 22.01 3.93 33.02 5.92 18.97 1.43 38.05 1.59 57.03.19 5.33-.84 10.68-1.52 16.06-1.92 14.7-2.45 29.04-6.63 43.34-10.8 7.5-3.48 15.43-6.1 22.55-10.36 6.12-2.41 11.54-6.17 17.3-9.29 2.54-2.13 5.16-4.16 7.9-6.02 4.35-3.05 8.04-6.9 12.18-10.2 9.72-7.52 16.69-17.79 24.08-27.44 11.12-16.38 18.44-35.17 22.44-54.51.9-5.62 2.38-11.17 2.37-16.89.51-4.64.35-9.33 1.16-13.93 13.57.91 27.21.02 40.78-.73 18.22-1.55 36.5-4.02 53.99-9.54 13.89-4.32 27.48-10.6 38.32-20.47 8.86-7.86 15.13-18.59 17.21-30.28 2.95-17.02-1.16-34.37-7.56-50.13-10.08-24.59-25.43-46.56-41.65-67.44-3.45-.57-6.96-.16-10.43-.24-57.64.1-115.29.09-172.94.25 9.18 12.98 19.17 26.64 20.91 42.93l-.04.85c-4.59-1-9.27-.34-13.88-.04-14.68-.15-29.36-.11-44.04.04-4.33-.28-8.67-.58-12.99-.08-11.11.12-22.21.01-33.31.08-21.25-11.44-40.71-25.84-59.32-41.13.25-31.06.03-62.13.11-93.19-.16-15.67.33-31.36-.26-47.02l.31.36c16.97 10.14 32.67 22.42 46.45 36.6 1.46 1.85 4 1.29 6.05 1.43 59.73-.35 119.47.09 179.19-.52-22.92-22.64-47.53-43.61-73.79-62.28 4.02-1.52 8.39-.77 12.59-.89 18.15-.07 36.3.15 54.45-.11.15-33.86.2-67.72-.03-101.58-1.54-10.02-.95-20.46-4.51-30.09-.5-7.91-4.62-14.94-5.55-22.76-.16.42-.48 1.24-.64 1.66-1.51-7.06-5.14-13.41-8.42-19.75-1.92-4.75-5.53-8.54-7.36-13.32-3.49-3.76-6.58-7.86-9.77-11.86-10.84-12.89-24.22-23.34-38.05-32.81-5.67-2.73-11.31-5.51-16.77-8.65-9.44-4.62-19.3-8.36-29.38-11.3-6.06-1.84-12.31-2.98-18.26-5.17-10-1.04-19.67-4.43-29.76-4.48-18.31-1.4-36.75-1.32-55.07-.02-6.92 1.11-13.91 1.77-20.88 2.52z"/><path d="M566.3 128.22c6.55-2.49 13.96-2.95 20.71-1.02 13.31 5.37 19.46 20.26 20.44 33.72.36 15.3-.1 30.61.25 45.92-5.58-1.58-10.62-4.46-15.95-6.65-14.25-6.07-28.6-11.99-43.36-16.72.35-9.16-.43-18.37.55-27.5 1.9-5.81 2.57-12.17 6.08-17.33 1.92-3.21 4.22-6.34 7.78-7.86 1.12-.89 2.13-2.02 3.5-2.56zM548.43 557.03c-.06-1.94.16-3.89 1.12-5.6 18.88 8.97 38.4 16.57 58.14 23.47-.21 7.39-.09 14.78-.11 22.18-.11 8.9.67 18.11-2.59 26.6-2.22 8.01-7.21 15.56-15 19.02-7.85 4.77-17.48 3.34-25.75.59.51-.22 1.03-.43 1.56-.63-1.61-.49-3.2-.97-4.78-1.44-2.84-3.37-5.87-6.69-7.68-10.75-3.42-7.32-4.19-15.51-4.83-23.46-.09-16.66.08-33.32-.08-49.98zM908.47 603.22c8.1-.08 16.21-.04 24.32-.03-.04 1.15-.07 2.31-.09 3.47-3.36-.03-6.73-.01-10.08-.02.05 8.75-.03 17.5.04 26.25-1.36.01-2.7.04-4.04.06 0-8.78.08-17.56-.05-26.34-3.35.03-6.71.04-10.05.01-.02-1.14-.04-2.27-.05-3.4zM936.41 603.18c1.94 0 3.89.01 5.86.05 2.76 8.39 5.51 16.79 8.52 25.1 2.95-8.33 5.71-16.72 8.49-25.11 1.92-.03 3.86-.05 5.8-.06.05 9.9-.01 19.81.03 29.72-1.32.02-2.63.04-3.93.07-.05-7.91.26-15.82-.12-23.71-3.44 7.62-5.49 15.81-8.29 23.68l-4.12-.09c-2.72-8.07-5.11-16.29-8.32-24.19-.08 8.1.02 16.21.01 24.31l-3.95-.09c.08-9.9.05-19.79.02-29.68zM29.38 920.28c15.06-9.2 33.39-10.61 50.62-10.02 15.6.69 32.5 5.22 42.54 18.03 10.99 13.82 11.98 32.46 11.23 49.38-10.03.28-20.07.02-30.1.14-.22-9.8.09-20.14-4.2-29.2-3.6-7.72-12.17-11.17-19.99-12.83-12.96-2.58-27.55.27-37.32 9.55-4.67 4.24-7.08 10.34-8.69 16.3-2.21 9.3-2.71 18.91-3.03 28.44-.37 23.32-.1 46.66-.17 69.99.19 15.12.72 30.79 6.86 44.86 3.54 8.33 10.8 15.1 19.75 17.1 9.36 1.9 19.57 2.43 28.51-1.53 7.13-3.09 12.74-9.09 16.03-16.06 4.31-8.9 5.39-18.92 5.67-28.67 10.04-.02 20.08-.03 30.12.01.11 15.44-1.67 31.52-9.34 45.21-6.16 11.27-16.98 19.7-29.21 23.47-10.53 3.45-21.73 3.65-32.7 3.3-12.8-.17-26.17-2.33-36.95-9.69-11.6-7.5-18.64-20.24-22.59-33.16-4.69-15.83-6.29-32.49-5.58-48.95.01-20.65.15-41.3-.04-61.94-.71-12.83.79-25.75 4.01-38.18 3.69-14.2 11.77-27.83 24.57-35.55zM610.39 942.66c.04-9.3-.08-18.6.07-27.89 9.71.15 19.42-.09 29.13.13-.08 9.26-.01 18.51-.03 27.77-9.73.03-19.45.06-29.17-.01zM1087.12 952.77c8.67-3.86 17.28-7.85 25.97-11.68.03 14.11.01 28.21.01 42.32 11.58.02 23.17.02 34.76-.01.08 6.56.02 13.13.04 19.69-11.6 0-23.2.02-34.8 0 .02 33.32-.03 66.65.02 99.98-.01 6.17 1.19 13.43 6.94 16.93 8.43 5.2 18.77 3.73 28.1 2.56-.13 6.67.31 13.35-.11 20.02-12.3 1.24-24.75 3.82-37.07 1.48-7.86-1.29-15.91-4.96-20.11-12.04-3.87-6.28-3.89-13.9-3.77-21.02-.01-35.97.02-71.94-.02-107.91-8.74.02-17.48-.01-26.22 0 .03-6.57-.17-13.14.13-19.7 8.69.06 17.39.02 26.1.03.04-10.22-.02-20.43.03-30.65zM524.04 980.86c12.35-1.24 25.94-.91 36.57 6.3 9 6.11 13.16 16.94 14.73 27.31 1.65 11.42 1.15 23.02 1.25 34.53.01 31.34-.03 62.68.02 94.02-8.67.26-17.35.05-26.02.11-.02-29.39-.01-58.78-.01-88.16-.13-9.32.29-18.65-.28-27.94-.56-7.97-3.45-16.44-10.37-21.06-7.63-4.87-17.32-5.19-25.98-3.53-8.09 1.56-15.01 7.27-18.51 14.67-5.51 11.4-5.49 24.43-5.53 36.83.02 29.73-.01 59.46.02 89.2-8.67-.01-17.34.01-26-.01-.04-29.37-.01-58.74-.02-88.11-.09-23.86.54-47.76-1.56-71.55 9.15-.13 18.31.02 27.47-.08.27 7.01-.11 14.04.22 21.06 3.12-2.46 4.36-6.45 7.07-9.29 6.44-8.36 16.51-13.34 26.93-14.3zM976.67 987.66c9.31-6.65 21.26-7.66 32.36-7.27 10.08.33 20.77 3.17 27.87 10.75 7.26 7.73 9.78 18.55 10.77 28.8.88 12.01.47 24.06.56 36.09-.01 29.04.03 58.07-.02 87.1-8.66 0-17.32.03-25.97-.02-.03-36.71 0-73.42-.02-110.13-.12-7.75-.94-16.09-5.82-22.45-4.07-5.45-10.84-8.16-17.45-8.74-8.65-.9-18.12.45-24.95 6.25-6.67 5.72-9.73 14.45-11.16 22.88-1.83 11.93-1.13 24.04-1.27 36.07-.04 25.39.09 50.78-.06 76.17-8.64-.06-17.29 0-25.92-.02-.05-27.38-.01-54.75-.02-82.13-.11-25.88.58-51.8-1.5-77.63 9.17.12 18.34-.07 27.52.11.17 6.84-.41 13.73.23 20.53l.83-.08c3.92-5.99 7.96-12.2 14.02-16.28zM206.46 981.69c14.33-2.25 29.43-2.03 43.26 2.72 11.29 3.8 20.51 12.58 25.41 23.37 6.37 13.8 7.74 29.25 8.24 44.25.49 19.44.47 39.3-5.16 58.09-3.47 11.65-10.2 22.97-21.04 29.1-12.14 6.86-26.57 7.35-40.17 6.95-12.49-.44-25.75-3.19-35.23-11.91-10.67-9.75-15.16-24.24-17.44-38.09-2.74-16.92-2.38-34.14-1.68-51.21 1.11-15.95 3.42-32.9 13.31-46.04 7.16-9.76 18.74-15.39 30.5-17.23m6 20.99c-7.11 1.64-13.15 6.65-16.37 13.16-5.6 11.13-6.37 23.91-6.68 36.15.1 13.88.07 27.84 2.29 41.58 1.61 9.1 4.07 18.94 11.25 25.33 7.41 6.31 17.91 6.8 27.13 5.59 7.79-.98 14.89-5.88 18.41-12.92 5.89-11.55 6.64-24.84 7.44-37.54.37-16.4 1.47-33.15-2.8-49.17-2.17-8.16-6.64-16.44-14.54-20.24-8.09-3.76-17.54-3.78-26.13-1.94zM336.89 987.78c10.68-7.55 24.76-9.09 37.26-5.94 7.85 1.99 15.06 6.59 19.94 13.09 2.1 2.65 3.56 5.73 5.55 8.46.08-6.64.03-13.28.03-19.91 8.65-.12 17.31-.06 25.97-.04.09 58.2.03 116.39.03 174.59.05 9.81-1.42 20.17-7.32 28.32-5.3 7.44-13.81 11.86-22.48 14.13-9.09 2.29-18.51 3.17-27.86 2.82-12.92.55-26.48-2.49-36.79-10.59-8.12-6.31-12.74-16.47-12.92-26.68.16-1.66-.58-3.82.55-5.15 9.52-.24 19.06.03 28.59-.13.47 5.92 2.02 12.14 6.41 16.42 5.95 6.06 15.13 7.39 23.23 6.34 7.78-.87 15.38-5.16 19.1-12.21 4.19-7.38 3.43-16.16 3.5-24.31-.14-8.13.28-16.27-.24-24.38-4.54 7.26-10.8 13.64-18.85 16.91-11.66 5.13-25.29 4.43-37.08.1-10.8-4.11-18.97-13.35-23.32-23.89-6.09-14.4-7.66-30.24-8.15-45.73-.66-17.72-.14-35.8 5.13-52.87 3.54-11.38 9.76-22.42 19.72-29.35m25.56 14.84c-8.32 1.66-14.73 8.32-17.87 15.97-4.95 11.78-5.33 24.83-5.54 37.43.04 15.15.34 30.62 4.84 45.22 2.5 8.06 7.62 16.26 16.11 18.86 10.22 3.11 22.96 1.57 30.16-6.98 7.06-8.3 8.69-19.55 9.64-30.02.78-12.34.58-24.72.36-37.06-.67-12-1.56-25.08-9.26-34.92-6.6-8.41-18.42-10.63-28.44-8.5zM799.13 995.06c6.47-7.7 16.25-11.7 25.95-13.39 10.59-1.76 21.46-1.84 32.08-.32 10.6 1.59 21.42 5.92 28.19 14.57 6.92 8.74 8.98 20.22 9.1 31.11.1 26.35-.03 52.7.06 79.05.06 12.42 1.34 24.79 3.12 37.06-9.5-.02-19 .02-28.49-.02-.13-7.83.19-15.67-.2-23.48-3.46 6.66-7.13 13.48-13.09 18.27-8.21 6.85-19.4 8.6-29.78 8.32-10.39-.21-21.35-3.08-28.83-10.69-7.98-8.02-10.99-19.52-12.06-30.47-.86-10.12-.92-20.64 2.64-30.29 2.8-7.74 8.19-14.47 15.04-19.03 9.18-6.18 20.19-8.9 31.03-10.38 11.48-1.61 23.1-1.18 34.65-1.49.05-10.59.78-21.73-3.66-31.64-2.98-6.61-9.68-10.87-16.74-11.79-8.72-1.25-18.83-.21-25.24 6.48-5.48 5.64-6.68 13.93-6.37 21.49-9.36-.09-18.71 0-28.06-.04.48-11.72 2.78-24.18 10.66-33.32m30.92 72.26c-7.62 2.38-14.58 7.83-17.25 15.55-3.07 8.92-2.78 19.02.73 27.78 2.71 6.93 8.95 12.48 16.35 13.83 7.83 1.33 16.44.17 22.93-4.66 6.22-4.49 9.97-11.56 12.23-18.73 3.67-12.05 3.93-24.79 3.44-37.27-12.84.39-26.04-.48-38.43 3.5zM612.04 983.4c8.62.03 17.25.02 25.87.01.23 53.24.07 106.48.05 159.72-8.66.01-17.32.01-25.98 0 .03-53.25-.09-106.49.06-159.73zM665.16 983.41c31.75.06 63.49-.08 95.23.07-.08 7.51.05 15.02-.04 22.53.11 1.43-.93 2.55-1.54 3.75-23 37.36-45.96 74.74-68.92 112.12 24.22.05 48.45 0 72.68.03.03 7.08.02 14.15 0 21.23-33.65-.01-67.29 0-100.94 0-.02-7.05.01-14.11-.03-21.15.04-1.53-.16-3.16.79-4.44 22.96-37.64 46.17-75.12 69.05-112.81-22.1-.15-44.2-.04-66.29-.06-.08-7.09-.1-14.18.01-21.27z"/></g><g fill="#007cc2"><path d="M529.02 6.94c6.97-.75 13.96-1.41 20.88-2.52 18.32-1.3 36.76-1.38 55.07.02 10.09.05 19.76 3.44 29.76 4.48 5.95 2.19 12.2 3.33 18.26 5.17 10.08 2.94 19.94 6.68 29.38 11.3 5.46 3.14 11.1 5.92 16.77 8.65 13.83 9.47 27.21 19.92 38.05 32.81 3.19 4 6.28 8.1 9.77 11.86 1.83 4.78 5.44 8.57 7.36 13.32 3.28 6.34 6.91 12.69 8.42 19.75.16-.42.48-1.24.64-1.66.93 7.82 5.05 14.85 5.55 22.76 3.56 9.63 2.97 20.07 4.51 30.09.23 33.86.18 67.72.03 101.58-18.15.26-36.3.04-54.45.11-4.2.12-8.57-.63-12.59.89-.71-.46-1.41-.92-2.1-1.37-17.15-12.31-34.98-23.62-53.27-34.15-14.2-7.84-28.39-15.82-43.34-22.16-.01-.26-.02-.77-.02-1.03-.35-15.31.11-30.62-.25-45.92-.98-13.46-7.13-28.35-20.44-33.72-6.75-1.93-14.16-1.47-20.71 1.02-1.37.54-2.38 1.67-3.5 2.56-3.56 1.52-5.86 4.65-7.78 7.86-3.51 5.16-4.18 11.52-6.08 17.33-1.75 8.97.06 18.19-.93 27.26-8.79-2.43-17.3-5.77-26.1-8.15-34.25-10.02-69.39-17.19-104.93-20.56-5.63-.47-11.28-.74-16.85-1.72-5.45-1.08-11.11.42-16.49-1.17.78-4.86.46-9.9 2-14.63.91-2.84.95-5.83.82-8.77.24 1.29.48 2.59.73 3.89.7-6.55 2.48-12.94 4.93-19.04 2.33-5.57 3.96-11.42 6.87-16.74 3.55-6.7 6.84-13.72 11.96-19.39 2.34-3.6 4.35-7.95 8.34-9.97l.32-1.92c4.09-4.89 9.18-8.8 13.35-13.62l2.36-.12c.06-.56.17-1.69.23-2.25 6.52-5.27 13.29-10.23 20.35-14.76 4.59-2.33 8.67-5.81 13.79-6.98-.49-.22-.97-.44-1.44-.67 1.89-.46 3.78-.94 5.68-1.37-.41-.14-1.24-.44-1.65-.59 5.55-.83 9.67-5.39 15.5-5.39-.37-.17-1.12-.5-1.49-.67 5.23-.43 9.51-3.73 14.59-4.71 5.51-1.73 11.25-2.61 16.72-4.48 3.72-1.25 7.83-.83 11.42-2.51zM456.62 268.72c10.58-2.72 21.66-2.14 32.42-.99 21.16 2.71 40.79 11.82 59.18 22.23.59 15.66.1 31.35.26 47.02-.08 31.06.14 62.13-.11 93.19-29.1-24.7-54.99-53.02-78.56-82.99-10.3-13.84-20.61-28.05-26.64-44.36-2.31-7.27-4.48-15.52-1.22-22.85 2.55-6.01 8.57-9.66 14.67-11.25zM383.53 447c4.72 1.7 8.06 5.51 11.9 8.54 46.62 37.96 98.03 70.04 152.66 95.16.47.23.96.48 1.46.73-.96 1.71-1.18 3.66-1.12 5.6.16 16.66-.01 33.32.08 49.98.64 7.95 1.41 16.14 4.83 23.46 1.81 4.06 4.84 7.38 7.68 10.75 1.58.47 3.17.95 4.78 1.44-.53.2-1.05.41-1.56.63 8.27 2.75 17.9 4.18 25.75-.59 7.79-3.46 12.78-11.01 15-19.02 3.26-8.49 2.48-17.7 2.59-26.6.02-7.4-.1-14.79.11-22.18 8.85 2.41 17.46 5.64 26.28 8.18 44.9 13.44 91.43 21.8 138.33 23.05.13 4.63.07 9.27-.14 13.9.01 5.72-1.47 11.27-2.37 16.89-4 19.34-11.32 38.13-22.44 54.51-7.39 9.65-14.36 19.92-24.08 27.44-4.14 3.3-7.83 7.15-12.18 10.2-2.74 1.86-5.36 3.89-7.9 6.02-5.76 3.12-11.18 6.88-17.3 9.29-7.12 4.26-15.05 6.88-22.55 10.36-14.3 4.17-28.64 8.35-43.34 10.8-5.38.4-10.73 1.08-16.06 1.92-18.98 1.4-38.06 1.24-57.03-.19-11.01-1.99-22.17-3.1-33.02-5.92-7.35-1.48-14.13-5.04-21.6-5.97.47-.26.95-.5 1.44-.73-3.64-.38-7.05-1.65-10.2-3.46-7.75-3.01-15.21-6.67-22.68-10.28-3.8-2.93-7.82-5.58-12.06-7.81-15.19-11.26-29.02-24.54-39.84-40.1-2.78-4.59-6.11-8.88-7.89-14-.82-1.33-1.45-2.75-2-4.19-3.04-4.32-4.9-9.4-5.74-14.58-.22.52-.42 1.06-.62 1.61-2-7.32-4.18-14.59-5.83-22.01-3.09-10.23-3.37-21.04-3.57-31.65.26-53.72-.21-107.46.23-161.18zM607.69 471.3c11.1-.07 22.2.04 33.31-.08 4.32-.5 8.66-.2 12.99.08 14.68-.15 29.36-.19 44.04-.04 4.61-.3 9.29-.96 13.88.04.17 5.16-1.81 10.42-5.92 13.68-6.5 4.99-15 6.25-22.96 6.71-26.34 1.04-52-7.94-74.96-20.18l-.38-.21z"/></g><g fill="#59b431"><path d="M320.55 155.69c20.9-3.54 42.18-3.87 63.32-3.53l-.01.18c-.01 5.59-1.57 11.05-1.35 16.65.05 92.02-.11 184.04.09 276.05-30.25-25.51-58.13-53.82-83.44-84.22-16.32-19.76-31.43-40.63-43.72-63.15-11.31-21.44-20.7-44.99-19.94-69.64.36-16.98 7.67-33.73 20.37-45.1 17.65-16.22 41.55-23.27 64.68-27.24zM548.22 289.96c.2-35.49-.14-70.99.17-106.49 14.76 4.73 29.11 10.65 43.36 16.72 5.33 2.19 10.37 5.07 15.95 6.65 0 .26.01.77.02 1.03.21 18.84-.2 37.68.2 56.51 29 .13 58-.02 87.01.08 3.13 0 6.27-.09 9.4-.28.69.45 1.39.91 2.1 1.37 26.26 18.67 50.87 39.64 73.79 62.28-59.72.61-119.46.17-179.19.52-2.05-.14-4.59.42-6.05-1.43-13.78-14.18-29.48-26.46-46.45-36.6l-.31-.36zM691.04 427.52c57.65-.16 115.3-.15 172.94-.25 3.47.08 6.98-.33 10.43.24 16.22 20.88 31.57 42.85 41.65 67.44 6.4 15.76 10.51 33.11 7.56 50.13-2.08 11.69-8.35 22.42-17.21 30.28-10.84 9.87-24.43 16.15-38.32 20.47-17.49 5.52-35.77 7.99-53.99 9.54-13.57.75-27.21 1.64-40.78.73.56-18.7.12-37.43.27-56.14-.07-26.5.11-53-.1-79.5-20.51.09-41.03.15-61.54-.01-1.74-16.29-11.73-29.95-20.91-42.93zM548.37 430.17c18.61 15.29 38.07 29.69 59.32 41.13l.38.21c-.78 34.44.03 68.93-.38 103.39-19.74-6.9-39.26-14.5-58.14-23.47-.5-.25-.99-.5-1.46-.73.49-40.17-.06-80.35.28-120.53z"/></g><g fill="#65afe0"><path d="M383.86 152.34c5.42.4 10.85.08 16.27.46 5.57.98 11.22 1.25 16.85 1.72 35.54 3.37 70.68 10.54 104.93 20.56 8.8 2.38 17.31 5.72 26.1 8.15.99-9.07-.82-18.29.93-27.26-.98 9.13-.2 18.34-.55 27.5-.31 35.5.03 71-.17 106.49-18.39-10.41-38.02-19.52-59.18-22.23-10.76-1.15-21.84-1.73-32.42.99-6.1 1.59-12.12 5.24-14.67 11.25-3.26 7.33-1.09 15.58 1.22 22.85 6.03 16.31 16.34 30.52 26.64 44.36 23.57 29.97 49.46 58.29 78.56 82.99-.34 40.18.21 80.36-.28 120.53-54.63-25.12-106.04-57.2-152.66-95.16-3.84-3.03-7.18-6.84-11.9-8.54-.44 53.72.03 107.46-.23 161.18-.34-2.06-.62-4.12-.62-6.2-.09-52.31.07-104.62-.08-156.94-.2-92.01-.04-184.03-.09-276.05-.22-5.6 1.34-11.06 1.35-16.65zM607.72 207.87c14.95 6.34 29.14 14.32 43.34 22.16 18.29 10.53 36.12 21.84 53.27 34.15-3.13.19-6.27.28-9.4.28-29.01-.1-58.01.05-87.01-.08-.4-18.83.01-37.67-.2-56.51zM711.95 470.45c20.51.16 41.03.1 61.54.01.21 26.5.03 53 .1 79.5-.15 18.71.29 37.44-.27 56.14-.81 4.6-.65 9.29-1.16 13.93.21-4.63.27-9.27.14-13.9-46.9-1.25-93.43-9.61-138.33-23.05-8.82-2.54-17.43-5.77-26.28-8.18.41-34.46-.4-68.95.38-103.39 22.96 12.24 48.62 21.22 74.96 20.18 7.96-.46 16.46-1.72 22.96-6.71 4.11-3.26 6.09-8.52 5.92-13.68l.04-.85z"/></g></svg>